# xmcd
#
# Track frame offsets:
#      150
#      23670
#      44177
#      59297
#      74550
#      86420
#      109157
#      123207
#      136082
#      146035
#      155512
# 
# Disc length: 2277 seconds
#
# Revision: 3
# Processed by: cddbd v1.4PL0 Copyright (c) Steve Scherf et al.
#
# Submitted via: FreeRIP 1.20
#
DISCID=9b08e30b
DTITLE=Varies - Les Miserables
DYEAR=1900
DGENRE=Broadway
TTITLE0=At the End of the Day
TTITLE1=I Dreamed a Dream
TTITLE2=Who Am I?/The Trial
TTITLE3=Fantine's Death
TTITLE4=The Confrontation
TTITLE5=Master of the House
TTITLE6=Stars
TTITLE7=The ABC Café
TTITLE8=Red and Black
TTITLE9=Do You Hear the People Sing
TTITLE10=A Heart Full of Love
EXTD=APT 055
EXTT0=
EXTT1=
EXTT2=
EXTT3=
EXTT4=
EXTT5=
EXTT6=
EXTT7=
EXTT8=
EXTT9=
EXTT10=
PLAYORDER=
